<svg width="89" height="89" viewBox="0 0 89 89" fill="none" xmlns="http://www.w3.org/2000/svg">
<path d="M36.2158 78.3612L36.3179 77.7419L41.0831 78.5274L39.9139 85.6202L35.2386 84.8495L35.3407 84.2301L39.3167 84.8855L39.7383 82.3281L36.2718 81.7567L36.3689 81.1673L39.8354 81.7387L40.2817 79.0315L36.2158 78.3612Z" fill="#0A0D12"/>
<path d="M30.5538 81.4517L29.9354 78.945L29.9202 78.7736L29.7863 78.8817L27.5624 80.1812L26.8448 79.8764L29.7269 78.2185L28.9069 75.0212L29.6244 75.326L30.2375 77.8193L30.2566 77.9815L30.3866 77.8827L32.6065 76.5925L33.3241 76.8973L30.4631 78.5312L31.262 81.7525L30.5538 81.4517Z" fill="#0A0D12"/>
<path d="M23.7659 71.6372C24.1179 71.8991 24.3661 72.2269 24.5106 72.6206C24.6497 73.0103 24.6997 73.4009 24.6607 73.7925L26.6013 71.1855L27.1535 71.5966L22.7161 77.5579L22.2207 77.1891L22.8313 76.3688C22.466 76.5092 22.0821 76.5558 21.6796 76.5086C21.2731 76.4669 20.9101 76.3271 20.5907 76.0893C20.2983 75.8717 20.0766 75.6099 19.9257 75.304C19.7707 75.0036 19.6805 74.6839 19.6549 74.3452C19.6294 74.0064 19.6667 73.6681 19.7667 73.3303C19.8573 72.9938 20.0074 72.6848 20.2169 72.4033C20.5112 72.008 20.8644 71.703 21.2767 71.4882C21.6796 71.2748 22.0991 71.1747 22.5352 71.188C22.9713 71.2013 23.3815 71.351 23.7659 71.6372ZM23.5575 72.2393C23.3247 72.066 23.082 71.9569 22.8294 71.9119C22.5727 71.8723 22.319 71.8854 22.0681 71.9511C21.8119 72.0128 21.574 72.1176 21.3545 72.2655C21.1309 72.4189 20.9385 72.6038 20.7773 72.8204C20.6081 73.0478 20.4874 73.2946 20.4155 73.5608C20.3382 73.823 20.3141 74.087 20.3435 74.3528C20.3728 74.6187 20.4479 74.8681 20.5689 75.1012C20.6899 75.3344 20.8614 75.5335 21.0834 75.6988C21.2241 75.8036 21.3905 75.8853 21.5824 75.944C21.7743 76.0027 21.9789 76.033 22.1963 76.0349C22.4042 76.0382 22.6005 76.0119 22.7853 75.9559C22.97 75.8999 23.1256 75.8095 23.252 75.6849L24.2193 74.3854C24.2818 74.1206 24.3004 73.8525 24.2751 73.5813C24.2458 73.3155 24.1727 73.0633 24.0557 72.8248C23.9293 72.5876 23.7633 72.3925 23.5575 72.2393Z" fill="#0A0D12"/>
<path d="M17.8523 65.9597C18.0917 66.2523 18.259 66.5688 18.3545 66.9094C18.4447 67.2542 18.4679 67.5971 18.4242 67.938C18.3752 68.2833 18.2655 68.6129 18.095 68.9268C17.9202 69.2355 17.6865 69.5095 17.3939 69.7488C17.0126 70.0608 16.592 70.2609 16.1323 70.3492C15.6683 70.4323 15.2162 70.3966 14.7759 70.2422C14.3305 70.0921 13.9475 69.8212 13.6269 69.4293C13.2979 69.0271 13.1082 68.5979 13.0579 68.142C13.0033 67.6809 13.0648 67.2338 13.2425 66.8006C13.4149 66.3718 13.6892 66.0035 14.0654 65.6958C14.1072 65.6616 14.149 65.6275 14.1908 65.5933C14.2273 65.5633 14.2582 65.5425 14.2834 65.5306L17.1425 69.0257C17.4137 68.7603 17.6087 68.4656 17.7275 68.1417C17.8367 67.8169 17.8695 67.4892 17.8259 67.1587C17.7727 66.8272 17.6393 66.5308 17.4256 66.2696C17.2076 66.0031 16.9346 65.8079 16.6064 65.6839C16.274 65.5547 15.9596 65.5329 15.6632 65.6183L15.4104 65.0534C15.6721 64.9788 15.9518 64.9637 16.2496 65.0079C16.5473 65.0521 16.8368 65.1554 17.1179 65.3178C17.3896 65.4793 17.6344 65.6933 17.8523 65.9597ZM16.7714 69.3555L14.3033 66.3384C14.0226 66.6029 13.8276 66.8976 13.7183 67.2224C13.6048 67.542 13.5772 67.8654 13.6356 68.1927C13.6845 68.5189 13.8179 68.8153 14.0359 69.0817C14.2538 69.3482 14.5179 69.5377 14.828 69.6503C15.1329 69.7671 15.4579 69.8021 15.8032 69.7551C16.139 69.7071 16.4617 69.574 16.7714 69.3555Z" fill="#0A0D12"/>
<path d="M9.05394 60.9316C9.27603 61.3335 9.57542 61.6349 9.95211 61.8357C10.3257 62.0305 10.734 62.0937 11.177 62.0251L14.0936 60.5236L14.4087 61.1357L9.71871 63.5501L9.42212 62.974L10.5474 62.3947C10.1339 62.4026 9.75715 62.327 9.41717 62.168C9.0741 62.003 8.81333 61.7766 8.63485 61.4889C8.59796 61.432 8.56869 61.3826 8.54707 61.3405C8.52235 61.2925 8.50527 61.252 8.49583 61.2189L9.05394 60.9316Z" fill="#0A0D12"/>
<path d="M10.869 53.0835C10.9043 53.1291 10.9647 53.1987 11.0503 53.2924C11.1358 53.386 11.2218 53.5042 11.3084 53.647C11.395 53.7898 11.4663 53.9514 11.5222 54.132C11.5801 54.319 11.5995 54.5073 11.5805 54.6969C11.5594 54.88 11.493 55.0419 11.3811 55.1825C11.2627 55.3252 11.0971 55.4294 10.8844 55.4953L7.27677 56.6122L7.49235 57.3085L6.97007 57.4702L6.75449 56.7738L5.05225 57.3008L4.84864 56.6431L6.55088 56.1162L6.19157 54.9555L6.71385 54.7939L7.07316 55.9545L10.497 54.8945C10.6735 54.8257 10.789 54.7193 10.8433 54.5753C10.8957 54.4249 10.8979 54.2723 10.85 54.1175C10.7941 53.937 10.7142 53.7815 10.6102 53.6512C10.4998 53.5229 10.4267 53.4466 10.391 53.4223L10.869 53.0835Z" fill="#0A0D12"/>
<path d="M10.0199 44.3257L5.29287 44.2211L5.27675 44.9499L4.73015 44.9378L4.74627 44.209L4.60456 44.2059C4.17268 44.1963 3.80288 44.1274 3.49515 43.999C3.18757 43.8639 2.95534 43.6799 2.79846 43.4469C2.63499 43.207 2.55676 42.9284 2.56377 42.6112C2.5684 42.4021 2.60325 42.2003 2.66831 42.0059C2.73337 41.8116 2.81808 41.6447 2.92244 41.5052L3.41373 41.7287C3.33756 41.8148 3.27766 41.9283 3.23404 42.0691C3.19041 42.2099 3.16703 42.3512 3.16389 42.4929C3.15688 42.81 3.27627 43.0591 3.52207 43.2401C3.76802 43.4143 4.12718 43.5067 4.59955 43.5171L4.7615 43.5207L4.79375 42.0631L5.34035 42.0752L5.3081 43.5328L10.0352 43.6374L10.0199 44.3257Z" fill="#0A0D12"/>
<path d="M10.9865 36.7191C10.902 37.0875 10.7545 37.4138 10.544 37.6979C10.3284 37.974 10.0724 38.1992 9.77623 38.3737C9.47494 38.5401 9.15207 38.6496 8.80762 38.7022C8.45658 38.7533 8.10343 38.7381 7.74816 38.6567C7.37972 38.5722 7.05194 38.4313 6.76479 38.2339C6.47107 38.035 6.22889 37.7925 6.03824 37.5064C5.84102 37.2188 5.70877 36.9046 5.64149 36.5637C5.56915 36.2147 5.5752 35.856 5.65966 35.4876C5.74412 35.1192 5.89416 34.7969 6.10978 34.5209C6.31883 34.2433 6.57475 34.0181 6.87754 33.8451C7.17376 33.6706 7.49738 33.5579 7.84841 33.5068C8.19287 33.4541 8.54931 33.4701 8.91774 33.5545C9.27302 33.636 9.59752 33.7761 9.89124 33.975C10.1784 34.1724 10.4206 34.4149 10.6178 34.7025C10.8099 34.982 10.9422 35.2962 11.0145 35.6452C11.0818 35.9861 11.0725 36.3441 10.9865 36.7191ZM7.91412 37.978C8.29571 38.0655 8.66326 38.0631 9.01676 37.9711C9.36519 37.8709 9.66394 37.7005 9.91301 37.4598C10.1555 37.2176 10.316 36.9255 10.3944 36.5833C10.4728 36.2412 10.4523 35.9076 10.333 35.5825C10.2136 35.2573 10.0156 34.973 9.73905 34.7296C9.45588 34.4846 9.12679 34.3192 8.75178 34.2332C8.37019 34.1457 8.00189 34.1513 7.64688 34.25C7.29186 34.3487 6.98982 34.5183 6.74076 34.759C6.49169 34.9997 6.32794 35.2911 6.24952 35.6332C6.17109 35.9753 6.19485 36.3097 6.3208 36.6363C6.44825 36.9564 6.65027 37.2381 6.92686 37.4816C7.19686 37.7235 7.52595 37.889 7.91412 37.978Z" fill="#0A0D12"/>
<path d="M9.57429 26.656C9.39287 27.0779 9.33827 27.4992 9.41048 27.9199C9.48554 28.3345 9.68594 28.6958 10.0117 29.0037L12.9858 30.3878L12.6953 31.012L7.91284 28.7864L8.18624 28.1989L9.33366 28.7329C9.07398 28.411 8.90276 28.067 8.82 27.7009C8.74009 27.3287 8.7591 26.9839 8.87701 26.6666C8.89937 26.6025 8.92052 26.5491 8.94046 26.5062C8.96324 26.4573 8.98481 26.4189 9.00517 26.3912L9.57429 26.656Z" fill="#0A0D12"/>
<path d="M18.8872 21.2293L13.8787 16.0728L17.2631 12.7855L17.7005 13.2358L14.8244 16.0293L16.6656 17.9248L19.0913 15.5687L19.5005 15.99L17.0747 18.3461L19.3955 20.7355L18.8872 21.2293Z" fill="#0A0D12"/>
<path d="M24.7528 10.6194C24.3713 10.8748 24.0965 11.1988 23.9284 11.5912C23.766 11.98 23.7379 12.3922 23.8439 12.8277L25.5881 15.606L25.005 15.9721L22.2003 11.5045L22.7491 11.16L23.422 12.2319C23.379 11.8206 23.4222 11.4388 23.5518 11.0865C23.687 10.7306 23.8903 10.4515 24.1618 10.2492C24.2154 10.2076 24.2622 10.1743 24.3022 10.1491C24.3479 10.1204 24.3869 10.1 24.4191 10.0877L24.7528 10.6194Z" fill="#0A0D12"/>
<path d="M32.5377 12.241C32.1827 12.3707 31.8287 12.4246 31.4757 12.4027C31.1268 12.3721 30.7985 12.2801 30.4909 12.1266C30.1873 11.9645 29.9197 11.7533 29.688 11.493C29.454 11.2264 29.2745 10.9219 29.1494 10.5796C29.0196 10.2245 28.9594 9.87286 28.9686 9.52454C28.9756 9.16987 29.0471 8.83471 29.1833 8.51905C29.3171 8.19705 29.5087 7.91503 29.758 7.67301C30.0113 7.42232 30.3155 7.23211 30.6705 7.10236C31.0256 6.97261 31.3775 6.92303 31.7265 6.95361C32.0731 6.97785 32.4014 7.06988 32.7113 7.2297C33.0189 7.38317 33.2897 7.59322 33.5237 7.85985C33.7554 8.12013 33.9361 8.42779 34.0658 8.78281C34.1909 9.12515 34.25 9.47366 34.2431 9.82833C34.2339 10.1767 34.1623 10.5118 34.0285 10.8338C33.8986 11.1472 33.7071 11.4292 33.4537 11.6799C33.2044 11.9219 32.8991 12.1089 32.5377 12.241ZM29.809 10.3493C29.9434 10.717 30.1454 11.024 30.4151 11.2704C30.6889 11.5081 30.9945 11.6659 31.332 11.7438C31.6671 11.8154 31.9995 11.7909 32.3292 11.6704C32.6589 11.5499 32.9276 11.3511 33.1353 11.074C33.343 10.7969 33.4737 10.476 33.5273 10.1115C33.5786 9.74059 33.5383 9.37446 33.4062 9.0131C33.2718 8.6454 33.0666 8.33951 32.7906 8.09545C32.5145 7.85138 32.2078 7.6904 31.8703 7.61252C31.5328 7.53463 31.1992 7.55593 30.8696 7.67641C30.5399 7.79689 30.2724 7.99887 30.0669 8.28234C29.8679 8.5635 29.7415 8.88636 29.6879 9.2509C29.6319 9.60911 29.6723 9.97523 29.809 10.3493Z" fill="#0A0D12"/>
<path d="M42.6044 10.0272L41.9203 10.1042L41.5906 7.17646C41.5212 6.55938 41.38 6.12018 41.1672 5.85886C40.9536 5.59083 40.6523 5.47872 40.2633 5.52252C39.995 5.55273 39.7376 5.64963 39.4911 5.81323C39.2439 5.97013 39.0325 6.17393 38.8569 6.42464C38.6873 6.66788 38.5752 6.93862 38.5205 7.23686L38.8818 10.4464L38.1977 10.5234L37.6075 5.28155L38.2313 5.21131L38.3649 6.39852C38.4771 6.12778 38.6366 5.88567 38.8435 5.67218C39.0497 5.45199 39.2909 5.272 39.5673 5.13221C39.8436 4.99241 40.136 4.90515 40.4446 4.87041C40.733 4.83793 40.9839 4.86403 41.1972 4.94869C41.4105 5.03335 41.5888 5.1695 41.7322 5.35713C41.8748 5.53805 41.9888 5.76634 42.0742 6.04201C42.1588 6.31098 42.2204 6.6165 42.2589 6.95858L42.6044 10.0272Z" fill="#0A0D12"/>
<path d="M48.9527 10.0817C48.8971 10.097 48.8097 10.1263 48.6905 10.1696C48.5713 10.213 48.4292 10.2474 48.2642 10.273C48.0992 10.2986 47.9226 10.3028 47.7344 10.2856C47.5394 10.2678 47.358 10.214 47.19 10.1241C47.0287 10.0348 46.9044 9.91157 46.817 9.75448C46.7303 9.59067 46.6971 9.39785 46.7174 9.17603L47.0609 5.41518L46.335 5.34886L46.3847 4.80439L47.1107 4.87071L47.2728 3.09615L47.9584 3.15879L47.7963 4.93334L49.0062 5.04387L48.9565 5.58834L47.7466 5.47781L47.4205 9.04709C47.4168 9.23653 47.4711 9.38383 47.5835 9.48899C47.7026 9.59476 47.8428 9.65501 48.0041 9.66975C48.1923 9.68694 48.3665 9.67235 48.5266 9.62598C48.6874 9.57289 48.7858 9.53443 48.8219 9.51061L48.9527 10.0817Z" fill="#0A0D12"/>
<path d="M54.2109 11.6237C53.8492 11.514 53.5339 11.3444 53.2649 11.1148C52.9979 10.8787 52.7876 10.6069 52.634 10.2993C52.4823 9.98532 52.3898 9.65049 52.3566 9.29481C52.3298 8.94109 52.3712 8.58336 52.4809 8.22162C52.6238 7.75008 52.8616 7.34959 53.1942 7.02017C53.5333 6.69272 53.9286 6.47048 54.3802 6.35345C54.8338 6.22997 55.3028 6.24166 55.7872 6.38851C56.2846 6.53928 56.6812 6.78997 56.9769 7.14058C57.2792 7.49315 57.4771 7.89876 57.5708 8.35741C57.6665 8.8096 57.6439 9.26824 57.5029 9.73332C57.4872 9.785 57.4716 9.83668 57.4559 9.88835C57.4422 9.93357 57.4282 9.96812 57.4139 9.992L53.0925 8.68208C53.0151 9.0536 53.0173 9.40693 53.0991 9.74206C53.1893 10.0727 53.3447 10.3631 53.565 10.6133C53.7939 10.859 54.0697 11.0308 54.3927 11.1287C54.7222 11.2285 55.0577 11.2385 55.3993 11.1587C55.7473 11.0808 56.0206 10.9238 56.2191 10.6878L56.7438 11.0161C56.568 11.2238 56.3441 11.3922 56.0722 11.5214C55.8003 11.6505 55.5024 11.726 55.1784 11.7477C54.8629 11.7649 54.5404 11.7236 54.2109 11.6237ZM53.217 8.20143L56.9474 9.33219C57.0332 8.95616 57.031 8.60283 56.9407 8.27221C56.857 7.94354 56.6997 7.65959 56.469 7.42036C56.2466 7.17664 55.9707 7.00485 55.6413 6.90499C55.3118 6.80513 54.987 6.79482 54.6667 6.87407C54.3484 6.94687 54.059 7.09894 53.7985 7.33029C53.5463 7.55714 53.3525 7.84752 53.217 8.20143Z" fill="#0A0D12"/>
<path d="M63.5572 15.8951L62.9641 15.5455L64.4601 13.0073C64.7754 12.4723 64.9265 12.0364 64.9135 11.6997C64.9038 11.3571 64.7304 11.0864 64.3931 10.8876C64.1605 10.7506 63.8965 10.6733 63.6012 10.656C63.3093 10.6328 63.0179 10.6686 62.7269 10.7635C62.4452 10.856 62.1928 11.005 61.9699 11.2105L60.3299 13.993L59.7368 13.6434L62.4152 9.09901L62.956 9.41775L62.3494 10.447C62.6017 10.298 62.8747 10.2004 63.1684 10.1541C63.4655 10.102 63.7665 10.1031 64.0714 10.1574C64.3762 10.2117 64.6624 10.3177 64.9299 10.4754C65.1799 10.6227 65.3648 10.7944 65.4844 10.9902C65.604 11.1861 65.6647 11.4021 65.6666 11.6382C65.6719 11.8685 65.6258 12.1195 65.5284 12.3912C65.4344 12.657 65.3 12.9382 65.1252 13.2348L63.5572 15.8951Z" fill="#0A0D12"/>
<path d="M68.1347 16.0154C68.4852 15.6595 68.8771 15.406 69.3103 15.2548C69.753 15.1035 70.1919 15.0667 70.6268 15.1446C71.0617 15.2224 71.4451 15.4248 71.7769 15.7516C72.0894 16.0595 72.2855 16.4184 72.3649 16.8282C72.4539 17.238 72.4521 17.6294 72.3595 18.0024L74.6189 15.7087L75.1093 16.1918L70.5053 20.8659C70.439 20.9332 70.4037 20.9979 70.3994 21.06C70.3999 21.1173 70.4266 21.1767 70.4795 21.2384L70.0959 21.6279C69.9855 21.5476 69.9062 21.479 69.858 21.4221C69.7618 21.3178 69.7131 21.1893 69.7119 21.0366C69.7108 20.8838 69.7552 20.7618 69.8452 20.6704L70.2076 20.3026C69.8169 20.401 69.4231 20.3968 69.0262 20.29C68.6292 20.1832 68.2937 19.9948 68.0196 19.7249C67.7599 19.4691 67.5715 19.1794 67.4546 18.8557C67.3424 18.5367 67.2945 18.2054 67.311 17.8616C67.3323 17.5226 67.411 17.1926 67.547 16.8718C67.6925 16.5509 67.8884 16.2655 68.1347 16.0154ZM70.704 19.6831L71.8479 18.5218C71.9559 18.2871 72.0089 18.0313 72.0068 17.7545C72.0094 17.4729 71.9621 17.2036 71.8647 16.9466C71.7768 16.6895 71.6463 16.4757 71.4732 16.3052C71.2712 16.1062 71.0459 15.9695 70.7971 15.895C70.5531 15.8157 70.2999 15.789 70.0376 15.8149C69.7801 15.8455 69.5301 15.9213 69.2876 16.0425C69.0451 16.1636 68.8291 16.3204 68.6396 16.5127C68.4407 16.7147 68.2849 16.9402 68.1722 17.1893C68.0644 17.443 68.0043 17.706 67.992 17.9782C67.9845 18.2455 68.027 18.5005 68.1195 18.7433C68.2121 18.986 68.3569 19.2044 68.5541 19.3986C68.6791 19.5218 68.8326 19.6256 69.0146 19.7102C69.1966 19.7947 69.388 19.8553 69.5887 19.892C69.799 19.9286 70.0019 19.9294 70.1973 19.8945C70.3927 19.8597 70.5616 19.7892 70.704 19.6831Z" fill="#0A0D12"/>
<path d="M75.1661 29.1543L81.8616 26.5381L82.7497 28.8108C83.0273 29.5212 83.1073 30.1711 82.9898 30.7605C82.881 31.3538 82.6187 31.8694 82.2028 32.3073C81.7932 32.7427 81.2803 33.0808 80.6642 33.3215C79.9852 33.5868 79.3426 33.6857 78.7365 33.6182C78.1329 33.557 77.5981 33.3383 77.1323 32.9623C76.669 32.5926 76.3096 32.0808 76.0541 31.427L75.1661 29.1543ZM80.4063 32.6614C80.9406 32.4526 81.376 32.1665 81.7123 31.8032C82.0511 31.4462 82.2631 31.0336 82.3483 30.5655C82.4398 30.095 82.3787 29.5862 82.165 29.0392L81.5349 27.4266L76.0087 29.586L76.6388 31.1986C76.855 31.7518 77.1594 32.1691 77.552 32.4505C77.9445 32.7319 78.3864 32.889 78.8775 32.9218C79.3748 32.9521 79.8844 32.8653 80.4063 32.6614Z" fill="#0A0D12"/>
<path d="M78.2499 40.4636C78.2072 40.0881 78.238 39.7313 78.3422 39.3934C78.4532 39.0547 78.6194 38.7539 78.8408 38.4909C79.069 38.2272 79.3398 38.0096 79.6531 37.8381C79.9673 37.6733 80.3121 37.5696 80.6877 37.5269C81.1773 37.4712 81.6392 37.5308 82.0735 37.7056C82.5085 37.8871 82.8692 38.1619 83.1556 38.5302C83.4488 38.8977 83.6239 39.3329 83.6811 39.8359C83.7399 40.3523 83.6669 40.8157 83.4622 41.2262C83.2583 41.6434 82.9644 41.9859 82.5804 42.2538C82.2032 42.5208 81.7731 42.6818 81.2903 42.7367C81.2366 42.7428 81.183 42.7489 81.1293 42.755C81.0824 42.7604 81.0451 42.7612 81.0175 42.7576L80.5073 38.2709C80.1356 38.3471 79.8121 38.4892 79.5368 38.6971C79.269 38.911 79.064 39.1687 78.9216 39.4702C78.7867 39.7776 78.7384 40.099 78.7765 40.4343C78.8154 40.7764 78.9392 41.0884 79.1479 41.3703C79.3573 41.659 79.6097 41.8477 79.9051 41.9364L79.8117 42.5482C79.5513 42.4691 79.308 42.3304 79.0816 42.1319C78.8552 41.9335 78.6679 41.6899 78.5196 41.401C78.3787 41.1181 78.2888 40.8057 78.2499 40.4636ZM80.998 38.1947L81.4384 42.0677C81.8176 41.9975 82.1411 41.8554 82.4089 41.6415C82.6775 41.4343 82.8758 41.1774 83.004 40.8707C83.1396 40.57 83.188 40.2486 83.1491 39.9066C83.1102 39.5645 82.9909 39.2622 82.7912 38.9996C82.5982 38.7362 82.3439 38.5308 82.0282 38.3832C81.72 38.2417 81.3766 38.1788 80.998 38.1947Z" fill="#0A0D12"/>
<path d="M78.3832 47.9074L83.8731 46.4071L83.7884 47.1209L79.0216 48.3705L83.3628 50.7103L83.2829 51.3839L78.2962 48.6413L78.3832 47.9074Z" fill="#0A0D12"/>
<path d="M76.4048 56.0175C76.5341 55.6623 76.7208 55.3568 76.9649 55.1009C77.2153 54.8473 77.4982 54.6522 77.8138 54.5157C78.1356 54.3815 78.475 54.3076 78.832 54.2939C79.1866 54.2866 79.5416 54.3476 79.8967 54.477C80.3597 54.6456 80.7465 54.905 81.0572 55.2552C81.3655 55.6117 81.5657 56.0187 81.6577 56.476C81.7561 56.9357 81.7187 57.4034 81.5454 57.879C81.3676 58.3674 81.0955 58.7496 80.7291 59.0256C80.3605 59.308 79.9446 59.4834 79.4815 59.5518C79.0248 59.6225 78.5681 59.5747 78.1114 59.4084C78.0607 59.3899 78.01 59.3714 77.9592 59.3529C77.9148 59.3368 77.8811 59.3209 77.858 59.3053L79.4034 55.0623C79.0367 54.9647 78.6837 54.9475 78.3446 55.0108C78.0095 55.0827 77.711 55.2218 77.4491 55.4281C77.1912 55.6431 77.0045 55.9091 76.8891 56.2262C76.7712 56.5497 76.7428 56.8841 76.8038 57.2296C76.8624 57.5814 77.0041 57.8629 77.2289 58.0741L76.8723 58.5799C76.6746 58.393 76.5187 58.1602 76.4047 57.8816C76.2906 57.603 76.2317 57.3014 76.2278 56.9767C76.228 56.6607 76.2869 56.341 76.4048 56.0175ZM79.8765 55.2131L78.5425 58.8757C78.9132 58.982 79.2661 58.9992 79.6012 58.9273C79.934 58.8617 80.2262 58.7203 80.4777 58.503C80.7333 58.2944 80.92 58.0284 81.0378 57.7049C81.1556 57.3815 81.1837 57.0577 81.1222 56.7335C81.067 56.4117 80.931 56.1144 80.7143 55.8415C80.5017 55.5773 80.2224 55.3678 79.8765 55.2131Z" fill="#0A0D12"/>
<path d="M80.2896 65.3168L79.9324 65.9054L74.6353 62.6905C74.4103 62.5539 74.2386 62.505 74.1204 62.5438C74.0021 62.5825 73.9079 62.6596 73.8379 62.775C73.7749 62.8789 73.7234 62.9898 73.6834 63.1076C73.6435 63.2255 73.6123 63.329 73.5898 63.418L73.0507 63.2329C73.0711 63.0953 73.1159 62.9369 73.1851 62.7578C73.2508 62.5845 73.3187 62.4402 73.3887 62.3248C73.5498 62.0593 73.7573 61.8931 74.0112 61.8261C74.2615 61.7649 74.5223 61.8165 74.7935 61.9811L80.2896 65.3168Z" fill="#0A0D12"/>
<path d="M69.511 67.3848C69.7664 67.1061 70.0557 66.8951 70.3791 66.752C70.7029 66.6184 71.0367 66.5489 71.3804 66.5434C71.7246 66.5475 72.0594 66.6117 72.3849 66.736C72.7154 66.8648 73.015 67.0524 73.2838 67.2986C73.5625 67.554 73.7779 67.8384 73.9302 68.1518C74.0874 68.4698 74.1783 68.8002 74.2028 69.1431C74.2324 69.4906 74.1922 69.8291 74.0824 70.1588C73.9731 70.498 73.7907 70.807 73.5353 71.0856C73.28 71.3643 72.9904 71.5705 72.6666 71.7041C72.3478 71.8422 72.014 71.9118 71.6653 71.9127C71.3216 71.9182 70.9845 71.8565 70.654 71.7276C70.3285 71.6033 70.0263 71.4134 69.7476 71.1581C69.4789 70.9119 69.2659 70.6298 69.1087 70.3118C68.9564 69.9983 68.8656 69.6679 68.836 69.3204C68.8069 68.9825 68.8471 68.644 68.9564 68.3048C69.0662 67.9751 69.2511 67.6684 69.511 67.3848ZM72.8044 67.8069C72.5157 67.5424 72.1949 67.363 71.8421 67.2685C71.4896 67.1836 71.1457 67.1843 70.8102 67.2706C70.4798 67.3615 70.196 67.5363 69.9589 67.7951C69.7218 68.0539 69.5749 68.3542 69.5182 68.6958C69.4614 69.0375 69.4933 69.3825 69.6136 69.7307C69.7389 70.0836 69.9434 70.3899 70.2271 70.6498C70.5157 70.9143 70.8387 71.0913 71.1962 71.1808C71.5536 71.2702 71.9001 71.2718 72.2355 71.1855C72.5709 71.0992 72.8572 70.9266 73.0943 70.6678C73.3314 70.409 73.4758 70.1065 73.5276 69.7603C73.5747 69.419 73.5382 69.0742 73.4178 68.726C73.3025 68.3823 73.098 68.0759 72.8044 67.8069Z" fill="#0A0D12"/>
<path d="M62.9966 72.9233C63.3627 72.6814 63.7554 72.5595 64.1748 72.5575C64.5885 72.5593 64.9728 72.6451 65.3278 72.8151L63.5363 70.1034L64.1108 69.7239L68.2072 75.9244L67.6919 76.2649L67.1282 75.4117C67.1359 75.803 67.0492 76.1798 66.868 76.5422C66.6904 76.9103 66.4356 77.2041 66.1033 77.4236C65.7992 77.6245 65.4776 77.7439 65.1386 77.7818C64.8033 77.8254 64.4721 77.8015 64.1448 77.7103C63.8176 77.6191 63.5121 77.469 63.2285 77.26C62.9429 77.0603 62.7033 76.8141 62.5099 76.5212C62.2383 76.1101 62.0716 75.6742 62.0099 75.2134C61.9462 74.762 61.9948 74.3334 62.1556 73.9279C62.3165 73.5223 62.5968 73.1874 62.9966 72.9233ZM63.492 73.3241C63.2498 73.4841 63.0646 73.6752 62.9364 73.8974C62.8119 74.1253 62.7379 74.3684 62.7143 74.6266C62.6852 74.8886 62.7028 75.1479 62.7673 75.4047C62.8354 75.6671 62.9439 75.9109 63.0927 76.1362C63.249 76.3727 63.4401 76.5701 63.6659 76.7283C63.8862 76.8902 64.1263 77.0026 64.3862 77.0654C64.6462 77.1283 64.9063 77.1425 65.1667 77.108C65.4271 77.0735 65.6727 76.98 65.9036 76.8275C66.05 76.7307 66.1835 76.6021 66.304 76.4416C66.4244 76.2811 66.5225 76.099 66.5983 75.8953C66.6721 75.7009 66.7141 75.5073 66.7243 75.3145C66.7344 75.1217 66.7024 74.9447 66.6282 74.7834L65.7352 73.4317C65.5075 73.2829 65.2617 73.1742 64.9981 73.1057C64.7381 73.0429 64.4761 73.0259 64.212 73.0547C63.946 73.0929 63.706 73.1827 63.492 73.3241Z" fill="#0A0D12"/>
<path d="M55.6453 76.5542C56.0018 76.4287 56.3564 76.379 56.7091 76.4051C57.064 76.4375 57.3944 76.5323 57.7002 76.6894C58.0082 76.8529 58.2808 77.0682 58.518 77.3353C58.7488 77.6047 58.927 77.9176 59.0525 78.2741C59.2162 78.7389 59.2613 79.2025 59.188 79.6648C59.1083 80.1294 58.9209 80.5424 58.626 80.9039C58.3333 81.2717 57.9482 81.5397 57.4707 81.7078C56.9805 81.8805 56.5125 81.9129 56.0666 81.8051C55.6144 81.6996 55.2149 81.4896 54.868 81.1752C54.5234 80.8672 54.2704 80.484 54.109 80.0256C54.0911 79.9747 54.0731 79.9237 54.0552 79.8728C54.0395 79.8282 54.0304 79.7921 54.0278 79.7644L58.287 78.2646C58.1297 77.9193 57.9189 77.6357 57.6547 77.4138C57.3864 77.2006 57.0894 77.0583 56.7637 76.9869C56.4339 76.9242 56.1099 76.9488 55.7915 77.0609C55.4668 77.1752 55.1904 77.3656 54.9622 77.632C54.7276 77.9007 54.6001 78.1889 54.5796 78.4966L53.9624 78.5422C53.9813 78.2708 54.0622 78.0026 54.205 77.7376C54.3479 77.4727 54.5435 77.2356 54.7919 77.0265C55.0361 76.826 55.3206 76.6686 55.6453 76.5542ZM58.4709 78.7258L54.7942 80.0205C54.9474 80.3744 55.1582 80.658 55.4265 80.8712C55.6884 81.0867 55.9832 81.2226 56.3107 81.279C56.6342 81.3441 56.9583 81.3194 57.283 81.2051C57.6077 81.0907 57.8757 80.9069 58.087 80.6536C58.3006 80.4066 58.4441 80.1128 58.5173 79.7721C58.5864 79.4401 58.571 79.0913 58.4709 78.7258Z" fill="#0A0D12"/>
<path d="M47.9263 83.1174C48.3798 83.0452 48.765 82.8662 49.082 82.5803C49.3923 82.2952 49.5906 81.9328 49.6767 81.4929L49.2569 78.2395L49.9397 78.1513L50.6148 83.3829L49.9722 83.4659L49.8102 82.2107C49.677 82.6022 49.4778 82.9308 49.2126 83.1964C48.9407 83.4629 48.6391 83.6311 48.3079 83.701C48.2418 83.7164 48.1853 83.7271 48.1385 83.7331C48.0849 83.74 48.041 83.7423 48.0066 83.7399L47.9263 83.1174Z" fill="#0A0D12"/>
</svg>
