<svg width="128" height="48" viewBox="0 0 128 48" fill="none" xmlns="http://www.w3.org/2000/svg">
<path d="M25.71 16.7003C21.0823 16.7003 17.4665 20.4054 17.4665 25.3654C17.4665 30.3254 20.991 33.9988 25.71 33.9988C30.429 33.9988 34.0148 30.262 34.0148 25.3337C34.0148 20.4371 30.4903 16.7003 25.71 16.7003ZM25.7412 30.4242C23.1059 30.4242 21.1748 28.2656 21.1748 25.3666C21.1748 22.4348 23.0747 20.2774 25.71 20.2774C28.3765 20.2774 30.3064 22.4677 30.3064 25.3666C30.3064 28.2656 28.3765 30.4242 25.7412 30.4242ZM35.0255 20.47H37.3241V33.678H41.0012V17.0223H35.0255V20.47ZM8.2123 20.2761C10.1434 20.2761 11.6755 21.5323 12.2572 23.4007H16.1494C15.444 19.4066 12.3185 16.7003 8.24352 16.7003C3.61586 16.7003 0 20.4054 0 25.3666C0 30.3278 3.52451 34 8.24352 34C12.2271 34 15.414 31.2938 16.1193 27.2667H12.2572C11.7056 29.1351 10.1734 30.4242 8.24238 30.4242C5.57586 30.4242 3.7072 28.2656 3.7072 25.3666C3.70837 22.4348 5.54695 20.2761 8.2123 20.2761ZM104.893 23.7556L102.197 23.3373C100.91 23.1446 99.9907 22.6933 99.9907 21.6299C99.9907 20.47 101.186 19.8907 102.81 19.8907C104.587 19.8907 105.722 20.6957 105.967 22.0165H109.521C109.122 18.6663 106.671 16.7016 102.902 16.7016C99.0101 16.7016 96.4362 18.7956 96.4362 21.7591C96.4362 24.5934 98.1219 26.2374 101.523 26.7521L104.219 27.1704C105.538 27.3631 106.273 27.9119 106.273 28.9424C106.273 30.2632 104.986 30.8108 103.209 30.8108C101.033 30.8108 99.8069 29.8766 99.6231 28.4595H96.0071C96.3449 31.7133 98.7651 34 103.178 34C107.193 34 109.858 32.067 109.858 28.7485C109.858 25.7849 107.928 24.2385 104.893 23.7556ZM39.1627 10.161C37.8144 10.161 36.8028 11.1915 36.8028 12.6087C36.8028 14.0258 37.8133 15.0563 39.1627 15.0563C40.5109 15.0563 41.5228 14.0258 41.5228 12.6087C41.5228 11.1915 40.5109 10.161 39.1627 10.161ZM93.1267 22.725C93.1267 19.1175 91.0432 16.7016 86.6304 16.7016C82.4629 16.7016 80.134 18.9249 79.6739 22.3396H83.3209C83.5047 21.0189 84.4853 19.9237 86.5692 19.9237C88.4391 19.9237 89.3582 20.7932 89.3582 21.8567C89.3582 23.2422 87.6722 23.5958 85.5886 23.8215C82.7694 24.1434 79.2761 25.1739 79.2761 29.04C79.2761 32.0365 81.3909 33.9683 84.7619 33.9683C87.397 33.9683 89.0517 32.8085 89.8798 30.9718C90.0025 32.6146 91.1669 33.678 92.7915 33.678H94.9365V30.2315H93.1278V22.725H93.1267ZM89.5107 26.9131C89.5107 29.1363 87.6722 30.7791 85.4346 30.7791C84.0554 30.7791 82.891 30.1669 82.891 28.879C82.891 27.2362 84.7605 26.785 86.4768 26.5923C88.1315 26.4313 89.0506 26.0447 89.5107 25.3032V26.9131ZM69.9907 16.7003C67.9371 16.7003 66.2211 17.6028 64.9955 19.1163V10H61.3184V33.678H64.934V31.4877C66.1596 33.0658 67.9072 34 69.9907 34C74.4032 34 77.744 30.3278 77.744 25.3666C77.744 20.4054 74.342 16.7003 69.9907 16.7003ZM69.4393 30.4242C66.8039 30.4242 64.8729 28.2656 64.8729 25.3666C64.8729 22.4677 66.8341 20.2774 69.4691 20.2774C72.1358 20.2774 74.0042 22.436 74.0042 25.3666C74.0042 28.2656 72.0743 30.4242 69.4393 30.4242ZM52.523 16.7003C50.133 16.7003 48.5696 17.7309 47.6505 19.1809V17.0223H44.0032V33.6768H47.6803V24.6252C47.6803 22.0799 49.2124 20.2761 51.4802 20.2761C53.595 20.2761 54.912 21.8543 54.912 24.1422V33.678H58.5891V23.8531C58.5906 19.6639 56.5379 16.7003 52.523 16.7003ZM127.387 24.8191C127.387 20.0517 124.077 16.7016 119.633 16.7016C114.914 16.7016 111.451 20.4383 111.451 25.3666C111.451 30.5535 115.159 34 119.695 34C123.526 34 126.529 31.6158 127.294 28.2339H123.463C122.912 29.7156 121.563 30.5535 119.755 30.5535C117.395 30.5535 115.617 29.0071 115.22 26.3008H127.386V24.8191H127.387ZM115.435 23.53C116.018 21.2103 117.672 20.0835 119.572 20.0835C121.656 20.0835 123.249 21.3396 123.617 23.53H115.435Z" fill="#0052FF"/>
</svg>
