<svg width="120" height="120" viewBox="0 0 120 120" fill="none" xmlns="http://www.w3.org/2000/svg">
<rect width="120" height="120" rx="60" fill="white"/>
<path d="M51.2158 93.3612L51.3179 92.7419L56.0831 93.5274L54.9139 100.62L50.2386 99.8495L50.3407 99.2301L54.3167 99.8855L54.7383 97.3281L51.2718 96.7567L51.3689 96.1673L54.8354 96.7387L55.2817 94.0315L51.2158 93.3612Z" fill="#0A0D12"/>
<path d="M45.5538 96.4517L44.9354 93.945L44.9202 93.7736L44.7863 93.8817L42.5624 95.1812L41.8448 94.8764L44.7269 93.2185L43.9069 90.0212L44.6244 90.326L45.2375 92.8193L45.2566 92.9815L45.3866 92.8827L47.6065 91.5925L48.3241 91.8973L45.4631 93.5312L46.262 96.7525L45.5538 96.4517Z" fill="#0A0D12"/>
<path d="M38.7659 86.6372C39.1179 86.8991 39.3661 87.2269 39.5106 87.6206C39.6497 88.0103 39.6997 88.4009 39.6607 88.7925L41.6013 86.1855L42.1535 86.5966L37.7161 92.5579L37.2207 92.1891L37.8313 91.3688C37.466 91.5092 37.0821 91.5558 36.6796 91.5086C36.2731 91.4669 35.9101 91.3271 35.5907 91.0893C35.2983 90.8717 35.0766 90.6099 34.9257 90.304C34.7707 90.0036 34.6805 89.6839 34.6549 89.3452C34.6294 89.0064 34.6667 88.6681 34.7667 88.3303C34.8573 87.9938 35.0074 87.6848 35.2169 87.4033C35.5112 87.008 35.8644 86.703 36.2767 86.4882C36.6796 86.2748 37.0991 86.1747 37.5352 86.188C37.9713 86.2013 38.3815 86.351 38.7659 86.6372ZM38.5575 87.2393C38.3247 87.066 38.082 86.9569 37.8294 86.9119C37.5727 86.8723 37.319 86.8854 37.0681 86.9511C36.8119 87.0128 36.574 87.1176 36.3545 87.2655C36.1309 87.4189 35.9385 87.6038 35.7773 87.8204C35.6081 88.0478 35.4874 88.2946 35.4155 88.5608C35.3382 88.823 35.3141 89.087 35.3435 89.3528C35.3728 89.6187 35.4479 89.8681 35.5689 90.1012C35.6899 90.3344 35.8614 90.5335 36.0834 90.6988C36.2241 90.8036 36.3905 90.8853 36.5824 90.944C36.7743 91.0027 36.9789 91.033 37.1963 91.0349C37.4042 91.0382 37.6005 91.0119 37.7853 90.9559C37.97 90.8999 38.1256 90.8095 38.252 90.6849L39.2193 89.3854C39.2818 89.1206 39.3004 88.8525 39.2751 88.5813C39.2458 88.3155 39.1727 88.0633 39.0557 87.8248C38.9293 87.5876 38.7633 87.3925 38.5575 87.2393Z" fill="#0A0D12"/>
<path d="M32.8523 80.9597C33.0917 81.2523 33.259 81.5688 33.3545 81.9094C33.4447 82.2542 33.4679 82.5971 33.4242 82.938C33.3752 83.2833 33.2655 83.6129 33.095 83.9268C32.9202 84.2355 32.6865 84.5095 32.3939 84.7488C32.0126 85.0608 31.592 85.2609 31.1323 85.3492C30.6683 85.4323 30.2162 85.3966 29.7759 85.2422C29.3305 85.0921 28.9475 84.8212 28.6269 84.4293C28.2979 84.0271 28.1082 83.5979 28.0579 83.142C28.0033 82.6809 28.0648 82.2338 28.2425 81.8006C28.4149 81.3718 28.6892 81.0035 29.0654 80.6958C29.1072 80.6616 29.149 80.6275 29.1908 80.5933C29.2273 80.5633 29.2582 80.5425 29.2834 80.5306L32.1425 84.0257C32.4137 83.7603 32.6087 83.4656 32.7275 83.1417C32.8367 82.8169 32.8695 82.4892 32.8259 82.1587C32.7727 81.8272 32.6393 81.5308 32.4256 81.2696C32.2076 81.0031 31.9346 80.8079 31.6064 80.6839C31.274 80.5547 30.9596 80.5329 30.6632 80.6183L30.4104 80.0534C30.6721 79.9788 30.9518 79.9637 31.2496 80.0079C31.5473 80.0521 31.8368 80.1554 32.1179 80.3178C32.3896 80.4793 32.6344 80.6933 32.8523 80.9597ZM31.7714 84.3555L29.3033 81.3384C29.0226 81.6029 28.8276 81.8976 28.7183 82.2224C28.6048 82.542 28.5772 82.8654 28.6356 83.1927C28.6845 83.5189 28.8179 83.8153 29.0359 84.0817C29.2538 84.3482 29.5179 84.5377 29.828 84.6503C30.1329 84.7671 30.4579 84.8021 30.8032 84.7551C31.139 84.7071 31.4617 84.574 31.7714 84.3555Z" fill="#0A0D12"/>
<path d="M24.0539 75.9316C24.276 76.3335 24.5754 76.6349 24.9521 76.8357C25.3257 77.0305 25.734 77.0937 26.177 77.0251L29.0936 75.5236L29.4087 76.1357L24.7187 78.5501L24.4221 77.974L25.5474 77.3947C25.1339 77.4026 24.7571 77.327 24.4172 77.168C24.0741 77.003 23.8133 76.7766 23.6349 76.4889C23.598 76.432 23.5687 76.3826 23.5471 76.3405C23.5224 76.2925 23.5053 76.252 23.4958 76.2189L24.0539 75.9316Z" fill="#0A0D12"/>
<path d="M25.869 68.0835C25.9043 68.1291 25.9647 68.1987 26.0503 68.2924C26.1358 68.386 26.2218 68.5042 26.3084 68.647C26.395 68.7898 26.4663 68.9514 26.5222 69.132C26.5801 69.319 26.5995 69.5073 26.5805 69.6969C26.5594 69.88 26.493 70.0419 26.3811 70.1825C26.2627 70.3252 26.0971 70.4294 25.8844 70.4953L22.2768 71.6122L22.4924 72.3085L21.9701 72.4702L21.7545 71.7738L20.0522 72.3008L19.8486 71.6431L21.5509 71.1162L21.1916 69.9555L21.7138 69.7939L22.0732 70.9545L25.497 69.8945C25.6735 69.8257 25.789 69.7193 25.8433 69.5753C25.8957 69.4249 25.8979 69.2723 25.85 69.1175C25.7941 68.937 25.7142 68.7815 25.6102 68.6512C25.4998 68.5229 25.4267 68.4466 25.391 68.4223L25.869 68.0835Z" fill="#0A0D12"/>
<path d="M25.0199 59.3257L20.2929 59.2211L20.2767 59.9499L19.7301 59.9378L19.7463 59.209L19.6046 59.2059C19.1727 59.1963 18.8029 59.1274 18.4951 58.999C18.1876 58.8639 17.9553 58.6799 17.7985 58.4469C17.635 58.207 17.5568 57.9284 17.5638 57.6112C17.5684 57.4021 17.6032 57.2003 17.6683 57.0059C17.7334 56.8116 17.8181 56.6447 17.9224 56.5052L18.4137 56.7287C18.3376 56.8148 18.2777 56.9283 18.234 57.0691C18.1904 57.2099 18.167 57.3512 18.1639 57.4929C18.1569 57.81 18.2763 58.0591 18.5221 58.2401C18.768 58.4143 19.1272 58.5067 19.5995 58.5171L19.7615 58.5207L19.7938 57.0631L20.3404 57.0752L20.3081 58.5328L25.0352 58.6374L25.0199 59.3257Z" fill="#0A0D12"/>
<path d="M25.9865 51.7191C25.902 52.0875 25.7545 52.4138 25.544 52.6979C25.3284 52.974 25.0724 53.1992 24.7762 53.3737C24.4749 53.5401 24.1521 53.6496 23.8076 53.7022C23.4566 53.7533 23.1034 53.7381 22.7482 53.6567C22.3797 53.5722 22.0519 53.4313 21.7648 53.2339C21.4711 53.035 21.2289 52.7925 21.0382 52.5064C20.841 52.2188 20.7088 51.9046 20.6415 51.5637C20.5691 51.2147 20.5752 50.856 20.6597 50.4876C20.7441 50.1192 20.8942 49.7969 21.1098 49.5209C21.3188 49.2433 21.5747 49.0181 21.8775 48.8451C22.1738 48.6706 22.4974 48.5579 22.8484 48.5068C23.1929 48.4541 23.5493 48.4701 23.9177 48.5545C24.273 48.636 24.5975 48.7761 24.8912 48.975C25.1784 49.1724 25.4206 49.4149 25.6178 49.7025C25.8099 49.982 25.9422 50.2962 26.0145 50.6452C26.0818 50.9861 26.0725 51.3441 25.9865 51.7191ZM22.9141 52.978C23.2957 53.0655 23.6633 53.0631 24.0168 52.9711C24.3652 52.8709 24.6639 52.7005 24.913 52.4598C25.1555 52.2176 25.316 51.9255 25.3944 51.5833C25.4728 51.2412 25.4523 50.9076 25.333 50.5825C25.2136 50.2573 25.0156 49.973 24.739 49.7296C24.4559 49.4846 24.1268 49.3192 23.7518 49.2332C23.3702 49.1457 23.0019 49.1513 22.6469 49.25C22.2919 49.3487 21.9898 49.5183 21.7408 49.759C21.4917 49.9997 21.3279 50.2911 21.2495 50.6332C21.1711 50.9753 21.1949 51.3097 21.3208 51.6363C21.4482 51.9564 21.6503 52.2381 21.9269 52.4816C22.1969 52.7235 22.526 52.889 22.9141 52.978Z" fill="#0A0D12"/>
<path d="M24.5743 41.656C24.3929 42.0779 24.3383 42.4992 24.4105 42.9199C24.4855 43.3345 24.6859 43.6958 25.0117 44.0037L27.9858 45.3878L27.6953 46.012L22.9128 43.7864L23.1862 43.1989L24.3337 43.7329C24.074 43.411 23.9028 43.067 23.82 42.7009C23.7401 42.3287 23.7591 41.9839 23.877 41.6666C23.8994 41.6025 23.9205 41.5491 23.9405 41.5062C23.9632 41.4573 23.9848 41.4189 24.0052 41.3912L24.5743 41.656Z" fill="#0A0D12"/>
<path d="M33.8872 36.2293L28.8787 31.0728L32.2631 27.7855L32.7005 28.2358L29.8244 31.0293L31.6656 32.9248L34.0913 30.5687L34.5005 30.99L32.0747 33.3461L34.3955 35.7355L33.8872 36.2293Z" fill="#0A0D12"/>
<path d="M39.7528 25.6194C39.3713 25.8748 39.0965 26.1988 38.9284 26.5912C38.766 26.98 38.7379 27.3922 38.8439 27.8277L40.5881 30.606L40.005 30.9721L37.2003 26.5045L37.7491 26.16L38.422 27.2319C38.379 26.8206 38.4222 26.4388 38.5518 26.0865C38.687 25.7306 38.8903 25.4515 39.1618 25.2492C39.2154 25.2076 39.2622 25.1743 39.3022 25.1491C39.3479 25.1204 39.3869 25.1 39.4191 25.0877L39.7528 25.6194Z" fill="#0A0D12"/>
<path d="M47.5377 27.241C47.1827 27.3707 46.8287 27.4246 46.4757 27.4027C46.1268 27.3721 45.7985 27.2801 45.4909 27.1266C45.1873 26.9645 44.9197 26.7533 44.688 26.493C44.454 26.2264 44.2745 25.9219 44.1494 25.5796C44.0196 25.2245 43.9594 24.8729 43.9686 24.5245C43.9756 24.1699 44.0471 23.8347 44.1833 23.519C44.3171 23.197 44.5087 22.915 44.758 22.673C45.0113 22.4223 45.3155 22.2321 45.6705 22.1024C46.0256 21.9726 46.3775 21.923 46.7265 21.9536C47.0731 21.9779 47.4014 22.0699 47.7113 22.2297C48.0189 22.3832 48.2897 22.5932 48.5237 22.8598C48.7554 23.1201 48.9361 23.4278 49.0658 23.7828C49.1909 24.1252 49.25 24.4737 49.2431 24.8283C49.2339 25.1767 49.1623 25.5118 49.0285 25.8338C48.8986 26.1472 48.7071 26.4292 48.4537 26.6799C48.2044 26.9219 47.8991 27.1089 47.5377 27.241ZM44.809 25.3493C44.9434 25.717 45.1454 26.024 45.4151 26.2704C45.6889 26.5081 45.9945 26.6659 46.332 26.7438C46.6671 26.8154 46.9995 26.7909 47.3292 26.6704C47.6589 26.5499 47.9276 26.3511 48.1353 26.074C48.343 25.7969 48.4737 25.476 48.5273 25.1115C48.5786 24.7406 48.5383 24.3745 48.4062 24.0131C48.2718 23.6454 48.0666 23.3395 47.7906 23.0954C47.5145 22.8514 47.2078 22.6904 46.8703 22.6125C46.5328 22.5346 46.1992 22.5559 45.8696 22.6764C45.5399 22.7969 45.2724 22.9989 45.0669 23.2823C44.8679 23.5635 44.7415 23.8864 44.6879 24.2509C44.6319 24.6091 44.6723 24.9752 44.809 25.3493Z" fill="#0A0D12"/>
<path d="M57.6044 25.0272L56.9203 25.1042L56.5906 22.1765C56.5212 21.5594 56.38 21.1202 56.1672 20.8589C55.9536 20.5908 55.6523 20.4787 55.2633 20.5225C54.995 20.5527 54.7376 20.6496 54.4911 20.8132C54.2439 20.9701 54.0325 21.1739 53.8569 21.4246C53.6873 21.6679 53.5752 21.9386 53.5205 22.2369L53.8818 25.4464L53.1977 25.5234L52.6075 20.2815L53.2313 20.2113L53.3649 21.3985C53.4771 21.1278 53.6366 20.8857 53.8435 20.6722C54.0497 20.452 54.2909 20.272 54.5673 20.1322C54.8436 19.9924 55.136 19.9051 55.4446 19.8704C55.733 19.8379 55.9839 19.864 56.1972 19.9487C56.4105 20.0334 56.5888 20.1695 56.7322 20.3571C56.8748 20.538 56.9888 20.7663 57.0742 21.042C57.1588 21.311 57.2204 21.6165 57.2589 21.9586L57.6044 25.0272Z" fill="#0A0D12"/>
<path d="M63.9527 25.0817C63.8971 25.097 63.8097 25.1263 63.6905 25.1696C63.5713 25.213 63.4292 25.2474 63.2642 25.273C63.0992 25.2986 62.9226 25.3028 62.7344 25.2856C62.5394 25.2678 62.358 25.214 62.19 25.1241C62.0287 25.0348 61.9044 24.9116 61.817 24.7545C61.7303 24.5907 61.6971 24.3979 61.7174 24.176L62.0609 20.4152L61.335 20.3489L61.3847 19.8044L62.1107 19.8707L62.2728 18.0962L62.9584 18.1588L62.7963 19.9333L64.0062 20.0439L63.9565 20.5883L62.7466 20.4778L62.4205 24.0471C62.4168 24.2365 62.4711 24.3838 62.5835 24.489C62.7026 24.5948 62.8428 24.655 63.0041 24.6698C63.1923 24.6869 63.3665 24.6724 63.5266 24.626C63.6874 24.5729 63.7858 24.5344 63.8219 24.5106L63.9527 25.0817Z" fill="#0A0D12"/>
<path d="M69.2109 26.6237C68.8492 26.514 68.5339 26.3444 68.2649 26.1148C67.9979 25.8787 67.7876 25.6069 67.634 25.2993C67.4823 24.9853 67.3898 24.6505 67.3566 24.2948C67.3298 23.9411 67.3712 23.5834 67.4809 23.2216C67.6238 22.7501 67.8616 22.3496 68.1942 22.0202C68.5333 21.6927 68.9286 21.4705 69.3802 21.3535C69.8338 21.23 70.3028 21.2417 70.7872 21.3885C71.2846 21.5393 71.6812 21.79 71.9769 22.1406C72.2792 22.4932 72.4771 22.8988 72.5708 23.3574C72.6665 23.8096 72.6439 24.2682 72.5029 24.7333C72.4872 24.785 72.4716 24.8367 72.4559 24.8884C72.4422 24.9336 72.4282 24.9681 72.4139 24.992L68.0925 23.6821C68.0151 24.0536 68.0173 24.4069 68.0991 24.7421C68.1893 25.0727 68.3447 25.3631 68.565 25.6133C68.7939 25.859 69.0697 26.0308 69.3927 26.1287C69.7222 26.2285 70.0577 26.2385 70.3993 26.1587C70.7473 26.0808 71.0206 25.9238 71.2191 25.6878L71.7438 26.0161C71.568 26.2238 71.3441 26.3922 71.0722 26.5214C70.8003 26.6505 70.5024 26.726 70.1784 26.7477C69.8629 26.7649 69.5404 26.7236 69.2109 26.6237ZM68.217 23.2014L71.9474 24.3322C72.0332 23.9562 72.031 23.6028 71.9407 23.2722C71.857 22.9435 71.6997 22.6596 71.469 22.4204C71.2466 22.1766 70.9707 22.0048 70.6413 21.905C70.3118 21.8051 69.987 21.7948 69.6667 21.8741C69.3484 21.9469 69.059 22.0989 68.7985 22.3303C68.5463 22.5571 68.3525 22.8475 68.217 23.2014Z" fill="#0A0D12"/>
<path d="M78.5572 30.8951L77.9641 30.5455L79.4601 28.0073C79.7754 27.4723 79.9265 27.0364 79.9135 26.6997C79.9038 26.3571 79.7304 26.0864 79.3931 25.8876C79.1605 25.7506 78.8965 25.6733 78.6012 25.656C78.3093 25.6328 78.0179 25.6686 77.7269 25.7635C77.4452 25.856 77.1928 26.005 76.9699 26.2105L75.3299 28.993L74.7368 28.6434L77.4152 24.099L77.956 24.4177L77.3494 25.447C77.6017 25.298 77.8747 25.2004 78.1684 25.1541C78.4655 25.102 78.7665 25.1031 79.0714 25.1574C79.3762 25.2117 79.6624 25.3177 79.9299 25.4754C80.1799 25.6227 80.3648 25.7944 80.4844 25.9902C80.604 26.1861 80.6647 26.4021 80.6666 26.6382C80.6719 26.8685 80.6258 27.1195 80.5284 27.3912C80.4344 27.657 80.3 27.9382 80.1252 28.2348L78.5572 30.8951Z" fill="#0A0D12"/>
<path d="M83.1347 31.0154C83.4852 30.6595 83.8771 30.406 84.3103 30.2548C84.753 30.1035 85.1919 30.0667 85.6268 30.1446C86.0617 30.2224 86.4451 30.4248 86.7769 30.7516C87.0894 31.0595 87.2855 31.4184 87.3649 31.8282C87.4539 32.238 87.4521 32.6294 87.3595 33.0024L89.6189 30.7087L90.1093 31.1918L85.5053 35.8659C85.439 35.9332 85.4037 35.9979 85.3994 36.06C85.3999 36.1173 85.4266 36.1767 85.4795 36.2384L85.0959 36.6279C84.9855 36.5476 84.9062 36.479 84.858 36.4221C84.7618 36.3178 84.7131 36.1893 84.7119 36.0366C84.7108 35.8838 84.7552 35.7618 84.8452 35.6704L85.2076 35.3026C84.8169 35.401 84.4231 35.3968 84.0262 35.29C83.6292 35.1832 83.2937 34.9948 83.0196 34.7249C82.7599 34.4691 82.5715 34.1794 82.4546 33.8557C82.3424 33.5367 82.2945 33.2054 82.311 32.8616C82.3323 32.5226 82.411 32.1926 82.547 31.8718C82.6925 31.5509 82.8884 31.2655 83.1347 31.0154ZM85.704 34.6831L86.8479 33.5218C86.9559 33.2871 87.0089 33.0313 87.0068 32.7545C87.0094 32.4729 86.9621 32.2036 86.8647 31.9466C86.7768 31.6895 86.6463 31.4757 86.4732 31.3052C86.2712 31.1062 86.0459 30.9695 85.7971 30.895C85.5531 30.8157 85.2999 30.789 85.0376 30.8149C84.7801 30.8455 84.5301 30.9213 84.2876 31.0425C84.0451 31.1636 83.8291 31.3204 83.6396 31.5127C83.4407 31.7147 83.2849 31.9402 83.1722 32.1893C83.0644 32.443 83.0043 32.706 82.992 32.9782C82.9845 33.2455 83.027 33.5005 83.1195 33.7433C83.2121 33.986 83.3569 34.2044 83.5541 34.3986C83.6791 34.5218 83.8326 34.6256 84.0146 34.7102C84.1966 34.7947 84.388 34.8553 84.5887 34.892C84.799 34.9286 85.0019 34.9294 85.1973 34.8945C85.3927 34.8597 85.5616 34.7892 85.704 34.6831Z" fill="#0A0D12"/>
<path d="M90.1661 44.1543L96.8616 41.5381L97.7497 43.8108C98.0273 44.5212 98.1073 45.1711 97.9898 45.7605C97.881 46.3538 97.6187 46.8694 97.2028 47.3073C96.7932 47.7427 96.2803 48.0808 95.6642 48.3215C94.9852 48.5868 94.3426 48.6857 93.7365 48.6182C93.1329 48.557 92.5981 48.3383 92.1323 47.9623C91.669 47.5926 91.3096 47.0808 91.0541 46.427L90.1661 44.1543ZM95.4063 47.6614C95.9406 47.4526 96.376 47.1665 96.7123 46.8032C97.0511 46.4462 97.2631 46.0336 97.3483 45.5655C97.4398 45.095 97.3787 44.5862 97.165 44.0392L96.5349 42.4266L91.0087 44.586L91.6388 46.1986C91.855 46.7518 92.1594 47.1691 92.552 47.4505C92.9445 47.7319 93.3864 47.889 93.8775 47.9218C94.3748 47.9521 94.8844 47.8653 95.4063 47.6614Z" fill="#0A0D12"/>
<path d="M93.2499 55.4636C93.2072 55.0881 93.238 54.7313 93.3422 54.3934C93.4532 54.0547 93.6194 53.7539 93.8408 53.4909C94.069 53.2272 94.3398 53.0096 94.6531 52.8381C94.9673 52.6733 95.3121 52.5696 95.6877 52.5269C96.1773 52.4712 96.6392 52.5308 97.0735 52.7056C97.5085 52.8871 97.8692 53.1619 98.1556 53.5302C98.4488 53.8977 98.6239 54.3329 98.6811 54.8359C98.7399 55.3523 98.6669 55.8157 98.4622 56.2262C98.2583 56.6434 97.9644 56.9859 97.5804 57.2538C97.2032 57.5208 96.7731 57.6818 96.2903 57.7367C96.2366 57.7428 96.183 57.7489 96.1293 57.755C96.0824 57.7604 96.0451 57.7612 96.0175 57.7576L95.5073 53.2709C95.1356 53.3471 94.8121 53.4892 94.5368 53.6971C94.269 53.911 94.064 54.1687 93.9216 54.4702C93.7867 54.7776 93.7384 55.099 93.7765 55.4343C93.8154 55.7764 93.9392 56.0884 94.1479 56.3703C94.3573 56.659 94.6097 56.8477 94.9051 56.9364L94.8117 57.5482C94.5513 57.4691 94.308 57.3304 94.0816 57.1319C93.8552 56.9335 93.6679 56.6899 93.5196 56.401C93.3787 56.1181 93.2888 55.8057 93.2499 55.4636ZM95.998 53.1947L96.4384 57.0677C96.8176 56.9975 97.1411 56.8554 97.4089 56.6415C97.6775 56.4343 97.8758 56.1774 98.004 55.8707C98.1396 55.57 98.188 55.2486 98.1491 54.9066C98.1102 54.5645 97.9909 54.2622 97.7912 53.9996C97.5982 53.7362 97.3439 53.5308 97.0282 53.3832C96.72 53.2417 96.3766 53.1788 95.998 53.1947Z" fill="#0A0D12"/>
<path d="M93.3832 62.9074L98.8731 61.4071L98.7884 62.1209L94.0216 63.3705L98.3628 65.7103L98.2829 66.3839L93.2962 63.6413L93.3832 62.9074Z" fill="#0A0D12"/>
<path d="M91.4048 71.0175C91.5341 70.6623 91.7208 70.3568 91.9649 70.1009C92.2153 69.8473 92.4982 69.6522 92.8138 69.5157C93.1356 69.3815 93.475 69.3076 93.832 69.2939C94.1866 69.2866 94.5416 69.3476 94.8967 69.477C95.3597 69.6456 95.7465 69.905 96.0572 70.2552C96.3655 70.6117 96.5657 71.0187 96.6577 71.476C96.7561 71.9357 96.7187 72.4034 96.5454 72.879C96.3676 73.3674 96.0955 73.7496 95.7291 74.0256C95.3605 74.308 94.9446 74.4834 94.4815 74.5518C94.0248 74.6225 93.5681 74.5747 93.1114 74.4084C93.0607 74.3899 93.01 74.3714 92.9592 74.3529C92.9148 74.3368 92.8811 74.3209 92.858 74.3053L94.4034 70.0623C94.0367 69.9647 93.6837 69.9475 93.3446 70.0108C93.0095 70.0827 92.711 70.2218 92.4491 70.4281C92.1912 70.6431 92.0045 70.9091 91.8891 71.2262C91.7712 71.5497 91.7428 71.8841 91.8038 72.2296C91.8624 72.5814 92.0041 72.8629 92.2289 73.0741L91.8723 73.5799C91.6746 73.393 91.5187 73.1602 91.4047 72.8816C91.2906 72.603 91.2317 72.3014 91.2278 71.9767C91.228 71.6607 91.2869 71.341 91.4048 71.0175ZM94.8765 70.2131L93.5425 73.8757C93.9132 73.982 94.2661 73.9992 94.6012 73.9273C94.934 73.8617 95.2262 73.7203 95.4777 73.503C95.7333 73.2944 95.92 73.0284 96.0378 72.7049C96.1556 72.3815 96.1837 72.0577 96.1222 71.7335C96.067 71.4117 95.931 71.1144 95.7143 70.8415C95.5017 70.5773 95.2224 70.3678 94.8765 70.2131Z" fill="#0A0D12"/>
<path d="M95.2896 80.3168L94.9324 80.9054L89.6353 77.6905C89.4103 77.5539 89.2386 77.505 89.1204 77.5438C89.0021 77.5825 88.9079 77.6596 88.8379 77.775C88.7749 77.8789 88.7234 77.9898 88.6834 78.1076C88.6435 78.2255 88.6123 78.329 88.5898 78.418L88.0507 78.2329C88.0711 78.0953 88.1159 77.9369 88.1851 77.7578C88.2508 77.5845 88.3187 77.4402 88.3887 77.3248C88.5498 77.0593 88.7573 76.8931 89.0112 76.8261C89.2615 76.7649 89.5223 76.8165 89.7935 76.9811L95.2896 80.3168Z" fill="#0A0D12"/>
<path d="M84.511 82.3848C84.7664 82.1061 85.0557 81.8951 85.3791 81.752C85.7029 81.6184 86.0367 81.5489 86.3804 81.5434C86.7246 81.5475 87.0594 81.6117 87.3849 81.736C87.7154 81.8648 88.015 82.0524 88.2838 82.2986C88.5625 82.554 88.7779 82.8384 88.9302 83.1518C89.0874 83.4698 89.1783 83.8002 89.2028 84.1431C89.2324 84.4906 89.1922 84.8291 89.0824 85.1588C88.9731 85.498 88.7907 85.807 88.5353 86.0856C88.28 86.3643 87.9904 86.5705 87.6666 86.7041C87.3478 86.8422 87.014 86.9118 86.6653 86.9127C86.3216 86.9182 85.9845 86.8565 85.654 86.7276C85.3285 86.6033 85.0263 86.4134 84.7476 86.1581C84.4789 85.9119 84.2659 85.6298 84.1087 85.3118C83.9564 84.9983 83.8656 84.6679 83.836 84.3204C83.8069 83.9825 83.8471 83.644 83.9564 83.3048C84.0662 82.9751 84.2511 82.6684 84.511 82.3848ZM87.8044 82.8069C87.5157 82.5424 87.1949 82.363 86.8421 82.2685C86.4896 82.1836 86.1457 82.1843 85.8102 82.2706C85.4798 82.3615 85.196 82.5363 84.9589 82.7951C84.7218 83.0539 84.5749 83.3542 84.5182 83.6958C84.4614 84.0375 84.4933 84.3825 84.6136 84.7307C84.7389 85.0836 84.9434 85.3899 85.2271 85.6498C85.5157 85.9143 85.8387 86.0913 86.1962 86.1808C86.5536 86.2702 86.9001 86.2718 87.2355 86.1855C87.5709 86.0992 87.8572 85.9266 88.0943 85.6678C88.3314 85.409 88.4758 85.1065 88.5276 84.7603C88.5747 84.419 88.5382 84.0742 88.4178 83.726C88.3025 83.3823 88.098 83.0759 87.8044 82.8069Z" fill="#0A0D12"/>
<path d="M77.9966 87.9233C78.3627 87.6814 78.7554 87.5595 79.1748 87.5575C79.5885 87.5593 79.9728 87.6451 80.3278 87.8151L78.5363 85.1034L79.1108 84.7239L83.2072 90.9244L82.6919 91.2649L82.1282 90.4117C82.1359 90.803 82.0492 91.1798 81.868 91.5422C81.6904 91.9103 81.4356 92.2041 81.1033 92.4236C80.7992 92.6245 80.4776 92.7439 80.1386 92.7818C79.8033 92.8254 79.4721 92.8015 79.1448 92.7103C78.8176 92.6191 78.5121 92.469 78.2285 92.26C77.9429 92.0603 77.7033 91.8141 77.5099 91.5212C77.2383 91.1101 77.0716 90.6742 77.0099 90.2134C76.9462 89.762 76.9948 89.3334 77.1556 88.9279C77.3165 88.5223 77.5968 88.1874 77.9966 87.9233ZM78.492 88.3241C78.2498 88.4841 78.0646 88.6752 77.9364 88.8974C77.8119 89.1253 77.7379 89.3684 77.7143 89.6266C77.6852 89.8886 77.7028 90.1479 77.7673 90.4047C77.8354 90.6671 77.9439 90.9109 78.0927 91.1362C78.249 91.3727 78.4401 91.5701 78.6659 91.7283C78.8862 91.8902 79.1263 92.0026 79.3862 92.0654C79.6462 92.1283 79.9063 92.1425 80.1667 92.108C80.4271 92.0735 80.6727 91.98 80.9036 91.8275C81.05 91.7307 81.1835 91.6021 81.304 91.4416C81.4244 91.2811 81.5225 91.099 81.5983 90.8953C81.6721 90.7009 81.7141 90.5073 81.7243 90.3145C81.7344 90.1217 81.7024 89.9447 81.6282 89.7834L80.7352 88.4317C80.5075 88.2829 80.2617 88.1742 79.9981 88.1057C79.7381 88.0429 79.4761 88.0259 79.212 88.0547C78.946 88.0929 78.706 88.1827 78.492 88.3241Z" fill="#0A0D12"/>
<path d="M70.6453 91.5542C71.0018 91.4287 71.3564 91.379 71.7091 91.4051C72.064 91.4375 72.3944 91.5323 72.7002 91.6894C73.0082 91.8529 73.2808 92.0682 73.518 92.3353C73.7488 92.6047 73.927 92.9176 74.0525 93.2741C74.2162 93.7389 74.2613 94.2025 74.188 94.6648C74.1083 95.1294 73.9209 95.5424 73.626 95.9039C73.3333 96.2717 72.9482 96.5397 72.4707 96.7078C71.9805 96.8805 71.5125 96.9129 71.0666 96.8051C70.6144 96.6996 70.2149 96.4896 69.868 96.1752C69.5234 95.8672 69.2704 95.484 69.109 95.0256C69.0911 94.9747 69.0731 94.9237 69.0552 94.8728C69.0395 94.8282 69.0304 94.7921 69.0278 94.7644L73.287 93.2646C73.1297 92.9193 72.9189 92.6357 72.6547 92.4138C72.3864 92.2006 72.0894 92.0583 71.7637 91.9869C71.4339 91.9242 71.1099 91.9488 70.7915 92.0609C70.4668 92.1752 70.1904 92.3656 69.9622 92.632C69.7276 92.9007 69.6001 93.1889 69.5796 93.4966L68.9624 93.5422C68.9813 93.2708 69.0622 93.0026 69.205 92.7376C69.3479 92.4727 69.5435 92.2356 69.7919 92.0265C70.0361 91.826 70.3206 91.6686 70.6453 91.5542ZM73.4709 93.7258L69.7942 95.0205C69.9474 95.3744 70.1582 95.658 70.4265 95.8712C70.6884 96.0867 70.9832 96.2226 71.3107 96.279C71.6342 96.3441 71.9583 96.3194 72.283 96.2051C72.6077 96.0907 72.8757 95.9069 73.087 95.6536C73.3006 95.4066 73.4441 95.1128 73.5173 94.7721C73.5864 94.4401 73.571 94.0913 73.4709 93.7258Z" fill="#0A0D12"/>
<path d="M62.9263 98.1174C63.3798 98.0452 63.765 97.8662 64.082 97.5803C64.3923 97.2952 64.5906 96.9328 64.6767 96.4929L64.2569 93.2395L64.9397 93.1513L65.6148 98.3829L64.9722 98.4659L64.8102 97.2107C64.677 97.6022 64.4778 97.9308 64.2126 98.1964C63.9407 98.4629 63.6391 98.6311 63.3079 98.701C63.2418 98.7164 63.1853 98.7271 63.1385 98.7331C63.0849 98.74 63.041 98.7423 63.0066 98.7399L62.9263 98.1174Z" fill="#0A0D12"/>
<path d="M59.3481 41.3911C68.7127 41.3911 76.3037 48.9821 76.3037 58.3467C76.3037 67.7112 68.7127 75.3022 59.3481 75.3022C49.9836 75.3022 42.3926 67.7112 42.3926 58.3467C42.3926 48.9821 49.9836 41.3911 59.3481 41.3911ZM59.3481 73.1828C60.4536 73.1828 62.0254 72.2316 63.4472 69.3881C63.9965 68.2894 64.4713 66.9957 64.8417 65.5528H53.8545C54.225 66.9957 54.6998 68.2894 55.2491 69.3881C56.6709 72.2316 58.2418 73.1828 59.3481 73.1828ZM53.4052 63.4333H65.2911C65.5581 61.8539 65.7065 60.144 65.7065 58.3467C65.71 56.7858 65.5938 55.227 65.3589 53.6839H53.3374C53.1025 55.227 52.9863 56.7858 52.9898 58.3467C52.9898 60.144 53.1382 61.8539 53.4052 63.4333ZM67.0239 65.5528C66.3703 68.3352 65.3487 70.7047 64.0855 72.4105C67.5865 71.2265 70.5216 68.782 72.3192 65.5528H67.0239ZM73.289 63.4333C73.8825 61.8032 74.1855 60.0815 74.1843 58.3467C74.1843 56.7181 73.9215 55.1506 73.4365 53.6839H67.5021C67.7199 55.2286 67.8281 56.7867 67.8259 58.3467C67.8259 60.1185 67.6903 61.8277 67.4376 63.4333H73.289ZM51.2586 63.4333C50.9984 61.7503 50.8686 60.0497 50.8704 58.3467C50.8704 56.73 50.9831 55.165 51.1951 53.6839H45.2598C44.7632 55.1883 44.5107 56.7625 44.512 58.3467C44.512 60.1338 44.8282 61.8472 45.4073 63.4333H51.2586ZM46.3763 65.5528C48.1741 68.7821 51.1094 71.2267 54.6108 72.4105C53.3476 70.7047 52.326 68.3352 51.6724 65.5528H46.3763ZM53.7494 51.5645H64.9469C64.5628 49.9494 64.0499 48.5108 63.4472 47.3052C62.0254 44.4618 60.4545 43.5106 59.3481 43.5106C58.2426 43.5106 56.6709 44.4618 55.2491 47.3052C54.6464 48.5108 54.1335 49.9503 53.7494 51.5645ZM67.1206 51.5645H72.5464C70.778 48.1312 67.7439 45.52 64.0855 44.2829C65.4123 46.0751 66.4729 48.5981 67.1206 51.5645ZM54.6108 44.2829C50.9523 45.52 47.9183 48.1312 46.1499 51.5645H51.5757C52.2234 48.5981 53.284 46.0751 54.6108 44.2829Z" fill="#0A0D12"/>
</svg>
