<svg width="105" height="156" viewBox="0 0 105 156" fill="none" xmlns="http://www.w3.org/2000/svg">
<rect x="0.5" y="0.5" width="104" height="155" rx="52" stroke="white" stroke-opacity="0.2"/>
<path d="M52.5005 47.375C52.9356 47.375 53.3529 47.5479 53.6606 47.8556C53.9683 48.1632 54.1411 48.5805 54.1411 49.0157V68.2372L60.5746 61.0469C60.8654 60.7255 61.2716 60.5323 61.7045 60.5094C62.1374 60.4866 62.5617 60.636 62.8848 60.9249C63.2079 61.2139 63.4035 61.619 63.4288 62.0517C63.4542 62.4845 63.3073 62.9097 63.0202 63.2344L53.7233 73.625C53.5694 73.7974 53.3808 73.9354 53.1699 74.0298C52.959 74.1243 52.7305 74.1731 52.4994 74.1731C52.2683 74.1731 52.0398 74.1243 51.8289 74.0298C51.618 73.9354 51.4294 73.7974 51.2755 73.625L41.9786 63.2344C41.8335 63.0741 41.7215 62.8866 41.6491 62.6829C41.5767 62.4791 41.5453 62.263 41.5567 62.0471C41.5681 61.8311 41.6221 61.6195 41.7156 61.4245C41.809 61.2295 41.9401 61.0549 42.1013 60.9107C42.2625 60.7666 42.4506 60.6557 42.6548 60.5845C42.859 60.5132 43.0752 60.4831 43.2911 60.4957C43.507 60.5084 43.7182 60.5636 43.9127 60.6582C44.1072 60.7528 44.281 60.8849 44.4242 61.0469L50.8599 68.2372V49.0157C50.8599 48.5805 51.0327 48.1632 51.3404 47.8556C51.6481 47.5479 52.0654 47.375 52.5005 47.375Z" fill="white" fill-opacity="0.2"/>
</svg>
