<svg width="35" height="35" viewBox="0 0 35 35" fill="none" xmlns="http://www.w3.org/2000/svg">
<path d="M17.3481 0.391113C26.7127 0.391113 34.3037 7.98212 34.3037 17.3467C34.3037 26.7112 26.7127 34.3022 17.3481 34.3022C7.98359 34.3022 0.392578 26.7112 0.392578 17.3467C0.392578 7.98212 7.98359 0.391113 17.3481 0.391113ZM17.3481 32.1828C18.4536 32.1828 20.0254 31.2316 21.4472 28.3881C21.9965 27.2894 22.4713 25.9957 22.8417 24.5528H11.8545C12.225 25.9957 12.6998 27.2894 13.2491 28.3881C14.6709 31.2316 16.2418 32.1828 17.3481 32.1828ZM11.4052 22.4333H23.2911C23.5581 20.8539 23.7065 19.144 23.7065 17.3467C23.71 15.7858 23.5938 14.227 23.3589 12.6839H11.3374C11.1025 14.227 10.9863 15.7858 10.9898 17.3467C10.9898 19.144 11.1382 20.8539 11.4052 22.4333ZM25.0239 24.5528C24.3703 27.3352 23.3487 29.7047 22.0855 31.4105C25.5865 30.2265 28.5216 27.782 30.3192 24.5528H25.0239ZM31.289 22.4333C31.8825 20.8032 32.1855 19.0815 32.1843 17.3467C32.1843 15.7181 31.9215 14.1506 31.4365 12.6839H25.5021C25.7199 14.2286 25.8281 15.7867 25.8259 17.3467C25.8259 19.1185 25.6903 20.8277 25.4376 22.4333H31.289ZM9.25864 22.4333C8.99841 20.7503 8.86859 19.0497 8.87036 17.3467C8.87036 15.73 8.98312 14.165 9.19506 12.6839H3.25976C2.76317 14.1883 2.51072 15.7625 2.51202 17.3467C2.51202 19.1338 2.82825 20.8472 3.40728 22.4333H9.25864ZM4.37629 24.5528C6.17407 27.7821 9.10944 30.2267 12.6108 31.4105C11.3476 29.7047 10.326 27.3352 9.67236 24.5528H4.37629ZM11.7494 10.5645H22.9469C22.5628 8.94944 22.0499 7.51076 21.4472 6.30521C20.0254 3.46177 18.4545 2.51056 17.3481 2.51056C16.2426 2.51056 14.6709 3.46177 13.2491 6.30521C12.6464 7.51076 12.1335 8.95028 11.7494 10.5645ZM25.1206 10.5645H30.5464C28.778 7.13118 25.7439 4.52003 22.0855 3.28288C23.4123 5.07509 24.4729 7.59808 25.1206 10.5645ZM12.6108 3.28288C8.95235 4.52003 5.91831 7.13118 4.14993 10.5645H9.57571C10.2234 7.59808 11.284 5.07509 12.6108 3.28288Z" fill="#0A0D12"/>
</svg>
