<svg width="128" height="48" viewBox="0 0 128 48" fill="none" xmlns="http://www.w3.org/2000/svg">
<path fill-rule="evenodd" clip-rule="evenodd" d="M34.0162 10.106L23.162 37.9554H12.9669L17.5094 26.4134H17.3056C13.5581 32.7983 7.96678 37.0016 0 37.9554V26.5732C0 26.5732 5.09653 26.1781 8.09264 22.0437H0V10.1062H9.09526V19.9246L9.2994 19.9235L13.016 10.1062H19.8946V19.8624L20.0987 19.8619L23.9547 10.106H34.0162Z" fill="#146EF5"/>
<path d="M93.2042 34.8814H96.1333V12.8135H93.2042V34.8814Z" fill="white"/>
<path fill-rule="evenodd" clip-rule="evenodd" d="M77.0559 34.656C77.6926 35.0034 78.3399 35.177 78.9981 35.177C80.0854 35.177 81.0581 34.8297 81.9165 34.135C82.7749 33.4402 83.4401 32.4825 83.9123 31.2621C84.3844 30.0321 84.6204 28.638 84.6204 27.0794C84.6204 25.5209 84.3773 24.1267 83.8908 22.8968C83.4044 21.6669 82.7285 20.714 81.8629 20.038C80.9974 19.3526 80.0138 19.0146 78.9122 19.024C78.2112 19.024 77.5388 19.2024 76.895 19.5592C76.2511 19.9159 75.7147 20.4229 75.2855 21.0801C75.2524 21.1302 75.2202 21.1807 75.189 21.2317V12.8276H72.249V34.8814H75.1675L75.1616 32.8211C75.2372 32.9426 75.3178 33.0612 75.4036 33.1772C75.8686 33.8064 76.4193 34.2993 77.0559 34.656ZM80.0603 31.093C79.581 31.4779 79.0338 31.6705 78.4187 31.6705C77.8106 31.6705 77.2526 31.4733 76.7448 31.0789C76.2369 30.6752 75.8327 30.126 75.5323 29.4313C75.239 28.7365 75.0924 27.9479 75.0924 27.0654C75.0852 26.1828 75.2283 25.3942 75.5216 24.6994C75.822 23.9953 76.2262 23.4507 76.734 23.0658C77.2419 22.6715 77.8034 22.479 78.4187 22.4884C79.0338 22.479 79.581 22.6668 80.0603 23.0517C80.5467 23.4273 80.9187 23.9671 81.1762 24.6712C81.4408 25.366 81.5732 26.1641 81.5732 27.0654C81.5732 27.9666 81.4408 28.7647 81.1762 29.4594C80.9187 30.1542 80.5467 30.6987 80.0603 31.093Z" fill="white"/>
<path d="M38.2598 14.1514H41.6075L44.6021 28.5056L47.7879 14.1514H50.5776L54.0326 28.2175L56.9082 14.1514H59.9769L55.4489 34.8814H52.5625L49.0494 21.1398L45.8243 34.8814H42.9057L38.2598 14.1514Z" fill="white"/>
<path fill-rule="evenodd" clip-rule="evenodd" d="M64.9205 35.2475C63.7545 35.2568 62.7031 34.9188 61.7659 34.2335C60.8361 33.5388 60.1029 32.5764 59.5663 31.3466C59.037 30.1166 58.7723 28.713 58.7723 27.1357C58.7723 25.6055 59.0442 24.2206 59.5878 22.9813C60.1314 21.742 60.8683 20.775 61.7981 20.0802C62.728 19.3855 63.7652 19.0381 64.9098 19.0381C66.1974 19.0381 67.324 19.4136 68.2897 20.1647C69.2625 20.9158 69.9886 21.9814 70.4678 23.3615C70.9542 24.7323 71.1295 26.3049 70.9936 28.0792H61.8027C61.8284 28.7862 61.9628 29.4294 62.2059 30.0086C62.4777 30.647 62.8569 31.1447 63.3432 31.5014C63.8296 31.8581 64.3733 32.0365 64.9742 32.0365C65.432 32.0272 65.8576 31.9239 66.251 31.7268C66.6444 31.5203 66.977 31.2432 67.2489 30.8959C67.5278 30.5485 67.7245 30.1542 67.839 29.713H70.9078C70.7218 30.7926 70.3498 31.755 69.7919 32.5999C69.2339 33.4354 68.5328 34.0879 67.6888 34.5574C66.8447 35.0268 65.9219 35.2568 64.9205 35.2475ZM62.2166 24.2065C62.0451 24.5989 61.9264 25.0214 61.8603 25.474H67.9527C67.9085 24.9021 67.774 24.3811 67.5493 23.9108C67.2918 23.3569 66.9413 22.9297 66.4978 22.6292C66.0543 22.3194 65.5536 22.1645 64.9956 22.1645C64.4019 22.1645 63.8619 22.3429 63.3755 22.6996C62.889 23.0564 62.5027 23.5587 62.2166 24.2065Z" fill="white"/>
<path d="M86.7771 19.362C86.7771 18.1039 86.9954 16.9867 87.4317 16.0103C87.868 15.0245 88.4796 14.2593 89.2665 13.7148C90.0604 13.1608 90.9868 12.8745 92.0455 12.8557V16.2779C91.5518 16.2872 91.1299 16.4234 90.7794 16.6863C90.436 16.9397 90.1713 17.3106 89.9853 17.7988C89.8141 18.2483 89.7217 18.7693 89.7081 19.362H91.9811V22.6151H89.7063V34.8814H86.7771V22.6151H84.8887V19.362H86.7771Z" fill="white"/>
<path fill-rule="evenodd" clip-rule="evenodd" d="M103.58 35.2194C102.385 35.2194 101.316 34.8766 100.372 34.1913C99.4346 33.4965 98.6978 32.5388 98.1613 31.3184C97.632 30.0884 97.3673 28.6943 97.3673 27.1357C97.3673 25.5679 97.632 24.169 98.1613 22.9391C98.6978 21.6998 99.4346 20.7374 100.372 20.0521C101.316 19.3667 102.385 19.024 103.58 19.024C104.782 19.024 105.855 19.3667 106.799 20.0521C107.75 20.7374 108.491 21.6951 109.02 22.925C109.549 24.1549 109.817 25.5585 109.825 27.1357C109.817 28.6943 109.549 30.0884 109.02 31.3184C108.498 32.5388 107.761 33.4965 106.81 34.1913C105.858 34.8766 104.782 35.2194 103.58 35.2194ZM103.58 31.6846C104.209 31.6846 104.767 31.4968 105.254 31.1212C105.74 30.7363 106.116 30.201 106.38 29.5157C106.645 28.821 106.777 28.0277 106.777 27.1357C106.777 26.2345 106.645 25.4364 106.38 24.7417C106.116 24.0469 105.74 23.5118 105.254 23.1362C104.767 22.7513 104.209 22.5588 103.58 22.5588C102.958 22.5588 102.403 22.7513 101.917 23.1362C101.437 23.5118 101.065 24.0469 100.801 24.7417C100.536 25.4364 100.407 26.2345 100.415 27.1357C100.415 28.0277 100.547 28.821 100.812 29.5157C101.083 30.201 101.455 30.7363 101.928 31.1212C102.407 31.4968 102.958 31.6846 103.58 31.6846Z" fill="white"/>
<path d="M112.99 19.362H109.728L113.258 34.8814H116.112L118.434 24.9692L120.941 34.8814H123.752L127.293 19.362H124.343L122.334 29.0218L120.115 19.362H117.26L115.052 29.2347L112.99 19.362Z" fill="white"/>
</svg>
